PathFileType	3	(X/Y/Z)	F:\ViconData\AntennenMessung\Messung1\Session1\ID16.trc
DataRate	CameraRate	NumFrames	NumMarkers	Units	OrigDataRate	OrigDataStartFrame	OrigNumFrames
120.0	120.0	5	70	mm	120.0	338	900	
Frame#	Time	Ashort			Along			Atop			A4			Bshort			Blong			Btop			B4			Cshort			Clong			Ctop			C4			Dshort			Dlong			Dtop			D4			Eshort			Elong			Etop			E4			Fshort			Flong			Ftop			F4			Gshort			Glong			Gtop			G4			Hshort			Hlong			Htop			H4			I1			I2			I3			I4			I5			WandAshort			WandAlong			WandAtop			WandA4			WandA15			WandBshort			WandB4			WandB5			WandBtop			WandBlong			WandCshort			WandClong			WandCtop			WandC4			WandC5			Acenter			Aantenna			Bcenter			Bantenna			Ccenter			Cantenna			Dcenter			Dantenna			Ecenter			Eantenna			Fcenter			Fantenna			Gcenter			Gantenna			Hcenter			Hantenna			Icenter			Iantenna			
		X1	Y1	Z1	X2	Y2	Z2	X3	Y3	Z3	X4	Y4	Z4	X5	Y5	Z5	X6	Y6	Z6	X7	Y7	Z7	X8	Y8	Z8	X9	Y9	Z9	X10	Y10	Z10	X11	Y11	Z11	X12	Y12	Z12	X13	Y13	Z13	X14	Y14	Z14	X15	Y15	Z15	X16	Y16	Z16	X17	Y17	Z17	X18	Y18	Z18	X19	Y19	Z19	X20	Y20	Z20	X21	Y21	Z21	X22	Y22	Z22	X23	Y23	Z23	X24	Y24	Z24	X25	Y25	Z25	X26	Y26	Z26	X27	Y27	Z27	X28	Y28	Z28	X29	Y29	Z29	X30	Y30	Z30	X31	Y31	Z31	X32	Y32	Z32	X33	Y33	Z33	X34	Y34	Z34	X35	Y35	Z35	X36	Y36	Z36	X37	Y37	Z37	X38	Y38	Z38	X39	Y39	Z39	X40	Y40	Z40	X41	Y41	Z41	X42	Y42	Z42	X43	Y43	Z43	X44	Y44	Z44	X45	Y45	Z45	X46	Y46	Z46	X47	Y47	Z47	X48	Y48	Z48	X49	Y49	Z49	X50	Y50	Z50	X51	Y51	Z51	X52	Y52	Z52	X53	Y53	Z53	X54	Y54	Z54	X55	Y55	Z55	X56	Y56	Z56	X57	Y57	Z57	X58	Y58	Z58	X59	Y59	Z59	X60	Y60	Z60	X61	Y61	Z61	X62	Y62	Z62	X63	Y63	Z63	X64	Y64	Z64	X65	Y65	Z65	X66	Y66	Z66	X67	Y67	Z67	X68	Y68	Z68	X69	Y69	Z69	X70	Y70	Z70	
338	2.8083333	-1038.1887	214.46045	-1644.2196	-1109.3701	204.14468	-1599.3118	-1063.5629	172.93782	-1626.0454	-1054.1963	262.21283	-1634.9054	-1352.8536	235.21455	1003.502	-1281.3445	227.20879	1052.4231	-1322.8032	193.88326	1020.9546	-1284.6091	287.91876	1052.7576	813.9444	187.68808	1209.4517	892.12042	178.51897	1179.3049	844.24146	145.71146	1198.1738	860.84894	292.79404	1168.3528	1115.7737	209.9388	-1401.7545	1056.1918	194.01364	-1460.1611	1095.0415	162.45985	-1423.8513	1069.8325	238.79855	-1425.7864	-1204.55	1685.9569	-1563.1703	-1129.1267	1688.2844	-1605.9928	-1173.1591	1724.4446	-1581.9297	-1134.0598	1581.0017	-1603.8468	-1239.5836	1699.0752	1119.4642	-1309.205	1698.5182	1071.8363	-1270.4763	1736.3326	1096.8943	-1245.6047	1592.7523	1110.6808	988.84863	1664.2792	1162.1995	957.44824	1700.441	1183.7948	922.08167	1662.196	1214.8721	939.77673	1659.411	1159.9266	999.01196	1668.48	-1579.4359	1058.8596	1670.1647	-1518.6251	1024.9617	1708.0394	-1551.0979	1059.2336	1672.1665	-1585.426	-147.06456	1161.2948	-186.64607	-232.23155	1160.7018	-187.85365	-185.36797	1198.4452	-188.5475	-184.1833	1159.2382	-218.86731	-185.52751	1163.701	-139.9501																																														-1068.3909	210.08347	-1625.1653	-1073.4161	248.74751	-1624.2493	-1321.3673	231.68951	1025.0425	-1319.8956	270.43591	1029.2322	847.98358	183.69568	1196.3252	851.80292	222.46233	1194.4386	1088.6708	202.69466	-1428.3228	1082.6079	240.98479	-1432.5781	-1171.8822	1686.965	-1581.7178	-1170.5544	1647.9882	-1581.4976	-1270.9412	1698.8243	1098.0125	-1271.4243	1659.8445	1099.1746	952.91284	1705.6639	1186.9139	972.89307	1733.8334	1168.7955	1026.4841	1669.2533	-1551.5215	1028.0137	1630.2856	-1551.9474	-185.12669	1161.0297	-187.18575	-184.87538	1122.0564	-185.76729
339	2.8166667	-1038.1967	214.4982	-1644.1655	-1109.3728	204.1646	-1599.3192	-1063.6099	172.93004	-1625.9937	-1054.1783	262.23557	-1634.9274	-1352.9615	235.1859	1003.6156	-1281.4369	227.21873	1052.4651	-1322.9087	193.76265	1021.0209	-1284.5648	287.90314	1052.7887	813.8999	187.74554	1209.4865	892.16833	178.59615	1179.2432	844.26794	145.67339	1198.2462	860.62244	292.78253	1167.7633	1115.7253	209.64844	-1401.6033	1056.0955	193.94493	-1460.1326	1094.9615	162.36105	-1423.8505	1069.7748	238.74916	-1425.7731	-1204.5485	1685.9563	-1563.1743	-1129.1418	1688.3567	-1606.2123	-1173.1451	1724.4369	-1581.9268	-1134.0378	1581.0063	-1603.8751	-1239.6198	1699.108	1119.4766	-1309.3198	1698.7065	1071.8997	-1270.4337	1736.2683	1096.8746	-1245.6238	1592.8247	1110.6991	988.79272	1664.2266	1162.1968	957.44641	1700.4567	1183.776	922.52118	1662.1578	1215.0284	939.75378	1659.4469	1159.9069	999.04382	1668.4546	-1579.384	1058.8593	1670.1698	-1518.6255	1024.9546	1708.0391	-1551.0977	1059.2358	1672.1688	-1585.4327	-147.07445	1161.2932	-186.64001	-232.23579	1160.6987	-187.85184	-185.36967	1198.4584	-188.54372	-184.05954	1159.3973	-219.25571	-185.53346	1163.7363	-139.9281																																														-1068.4474	210.10628	-1625.1051	-1073.4785	248.76936	-1624.1813	-1321.4816	231.67932	1025.1156	-1320.0233	270.42676	1029.2999	847.97583	183.76212	1196.3193	851.74982	222.52951	1194.3582	1088.6425	202.51616	-1428.1862	1082.614	240.82474	-1432.3228	-1171.8893	1686.9958	-1581.8143	-1170.5818	1648.0179	-1581.6974	-1271.0173	1698.927	1098.0448	-1271.6265	1659.9509	1099.2661	953.11353	1705.4644	1186.7588	972.96973	1733.5726	1168.4103	1026.4855	1669.2415	-1551.5095	1028.0232	1630.274	-1551.9233	-185.12775	1161.0276	-187.18149	-184.87587	1122.0542	-185.76312
340	2.825	-1038.2048	214.56732	-1644.1962	-1109.3767	204.14757	-1599.2843	-1063.6367	172.90996	-1625.9938	-1054.1765	262.2464	-1634.9373	-1352.8944	235.10919	1003.7418	-1281.3904	227.17352	1052.4779	-1322.8486	193.85477	1020.9347	-1284.5441	287.94052	1052.7067	813.97455	187.60426	1209.5225	892.21759	178.63193	1179.1831	844.29956	145.65244	1198.199	860.52081	292.93677	1167.3475	1115.7704	209.92052	-1401.7605	1056.21	194.08206	-1460.2487	1095.0355	162.4799	-1423.8422	1069.8011	238.80057	-1425.8184	-1204.548	1685.9644	-1563.1736	-1129.1178	1688.3182	-1606.049	-1173.1522	1724.4213	-1581.9374	-1134.0402	1580.9956	-1603.865	-1239.5847	1699.057	1119.451	-1309.1642	1698.4646	1071.8145	-1270.4421	1736.3049	1096.8798	-1245.624	1592.8092	1110.6987	988.82666	1664.2439	1162.1927	957.57953	1700.3655	1183.8269	922.08618	1662.3008	1214.9055	939.75787	1659.4347	1159.9006	999.03491	1668.4758	-1579.4171	1058.8634	1670.1697	-1518.6135	1024.9591	1708.0396	-1551.1095	1059.2349	1672.1659	-1585.4277	-147.0733	1161.3062	-186.65129	-232.25853	1160.7076	-187.86049	-185.36801	1198.4569	-188.54576	-184.20384	1159.3403	-218.99547	-185.49702	1163.7039	-139.94077																																														-1068.5061	210.13109	-1625.0747	-1073.5637	248.78999	-1624.1205	-1321.5154	231.62668	1025.129	-1320.1482	270.36459	1029.4309	847.94641	183.7086	1196.3496	851.66241	222.48541	1194.4653	1088.7268	202.72903	-1428.317	1082.7236	241.02824	-1432.5752	-1171.8746	1686.9838	-1581.7454	-1170.5448	1648.0071	-1581.5454	-1270.8983	1698.7903	1098.0126	-1271.3724	1659.811	1099.1897	952.95953	1705.7062	1187.0256	972.98706	1733.863	1168.9401	1026.4795	1669.2529	-1551.5251	1028.0072	1630.285	-1551.9427	-185.12434	1161.0387	-187.19141	-184.87053	1122.0651	-185.78075
341	2.8333333	-1038.202	214.46724	-1644.1394	-1109.3684	204.12625	-1599.2971	-1063.6189	172.9025	-1625.9822	-1054.1879	262.24887	-1634.936	-1352.9816	235.0054	1003.6349	-1281.3281	227.15166	1052.4651	-1322.7795	193.83032	1020.9924	-1284.4836	287.96805	1052.6251	813.87451	187.67465	1209.522	892.07446	178.49213	1179.2579	844.27063	145.64507	1198.2765	860.53217	292.68207	1167.4255	1115.7705	209.92662	-1401.757	1056.182	194.02441	-1460.2018	1095.0375	162.49988	-1423.8444	1069.7606	238.7421	-1425.8016	-1204.5551	1685.9546	-1563.1792	-1129.1183	1688.3182	-1606.027	-1173.158	1724.4402	-1581.9337	-1134.0562	1580.9913	-1603.8306	-1239.6183	1699.1156	1119.4781	-1309.3434	1698.7648	1071.9274	-1270.4446	1736.3103	1096.8922	-1245.6112	1592.8063	1110.6926	988.79749	1664.2225	1162.193	957.50543	1700.375	1183.7756	922.09583	1662.2466	1214.9371	939.7713	1659.4329	1159.9142	999.04553	1668.478	-1579.429	1058.8528	1670.1593	-1518.6158	1024.9496	1708.0369	-1551.1014	1059.2408	1672.1683	-1585.4376	-147.06973	1161.3049	-186.65079	-232.24266	1160.7115	-187.86349	-185.37184	1198.4694	-188.53903	-184.20496	1159.3446	-219.00574	-185.47589	1163.6801	-139.94717																																														-1068.451	210.07185	-1625.0792	-1073.4774	248.73517	-1624.1403	-1321.4568	231.55006	1025.1183	-1320.0981	270.29529	1029.3563	847.97961	183.66989	1196.323	851.7608	222.43504	1194.3314	1088.6934	202.70062	-1428.3143	1082.6504	240.99361	-1432.5723	-1171.8748	1686.9785	-1581.7415	-1170.5399	1648.0018	-1581.5413	-1271.0439	1698.9574	1098.0465	-1271.6692	1659.9811	1099.251	952.93268	1705.6578	1186.9296	972.92151	1733.7977	1168.7748	1026.4795	1669.2491	-1551.5336	1028.0165	1630.282	-1551.9678	-185.13019	1161.0397	-187.19269	-184.87857	1122.0658	-185.79082
342	2.8416667	-1038.21	214.54143	-1644.189	-1109.3829	204.16418	-1599.2845	-1063.5906	172.91594	-1626.0336	-1054.1667	262.23096	-1634.9441	-1352.9714	235.11888	1003.7513	-1281.5081	227.32549	1052.4291	-1322.8478	193.821	1020.9495	-1284.7366	287.90042	1052.8634	813.94049	187.71461	1209.5007	892.0675	178.39308	1179.2922	844.33496	145.69337	1198.3121	860.80066	292.70984	1167.6113	1115.7123	209.6385	-1401.5996	1056.1724	194.08806	-1460.2582	1095.033	162.448	-1423.8724	1069.7936	238.73703	-1425.7803	-1204.5479	1685.9528	-1563.1772	-1129.1398	1688.3481	-1606.2087	-1173.1578	1724.426	-1581.9314	-1134.0376	1581.0063	-1603.8601	-1239.6946	1699.224	1119.5056	-1309.3757	1698.7875	1071.9315	-1270.4309	1736.2999	1096.8878	-1245.646	1592.8733	1110.715	988.81042	1664.2347	1162.2037	957.46667	1700.3958	1183.7964	922.10107	1662.1969	1214.8951	939.76416	1659.3881	1159.907	999.02734	1668.4589	-1579.3976	1058.8625	1670.1667	-1518.6259	1024.9613	1708.0427	-1551.1128	1059.2327	1672.1698	-1585.439	-147.05496	1161.2921	-186.64934	-232.24118	1160.7068	-187.84596	-185.36418	1198.4489	-188.53589	-184.19873	1159.3383	-218.99663	-185.48564	1163.66	-139.9608																																														-1068.4387	210.13396	-1625.1169	-1073.475	248.79568	-1624.1649	-1321.5714	231.69456	1025.1394	-1320.2661	270.43634	1029.4257	848.08405	183.64085	1196.2987	851.91315	222.3979	1194.2424	1088.7617	202.59959	-1428.1512	1082.7764	240.92062	-1432.235	-1171.8984	1686.9899	-1581.8085	-1170.5874	1648.0122	-1581.6807	-1271.032	1699.0276	1098.1102	-1271.6605	1660.0536	1099.3884	952.93292	1705.6261	1186.9197	972.91998	1733.7797	1168.7843	1026.4788	1669.2423	-1551.5162	1028.0028	1630.2742	-1551.9218	-185.12607	1161.0304	-187.18411	-184.87805	1122.0566	-185.77617
